<mxfile host="app.diagrams.net" modified="2021-10-15T11:47:49.417Z" agent="5.0 (Macintosh; Intel Mac OS X 10_15_4) AppleWebKit/537.36 (KHTML, like Gecko) Chrome/94.0.4606.71 Safari/537.36" etag="x-tOFPBwOLoNUW41mjdV" version="15.3.5" type="github">
  <diagram id="6Ol902vkGK0oYYPwLXwx" name="Page-1">
    <mxGraphModel dx="923" dy="556" grid="1" gridSize="10" guides="1" tooltips="1" connect="1" arrows="1" fold="1" page="1" pageScale="1" pageWidth="827" pageHeight="1169" math="0" shadow="0">
      <root>
        <mxCell id="0" />
        <mxCell id="1" parent="0" />
        <mxCell id="3bYIfMtGe1pdVCVY-yR_-3" value="ITSH" style="text;html=1;strokeColor=default;fillColor=none;align=center;verticalAlign=middle;whiteSpace=wrap;rounded=0;sketch=1;hachureGap=4;pointerEvents=0;" vertex="1" parent="1">
          <mxGeometry x="200" y="200" width="100" height="30" as="geometry" />
        </mxCell>
        <mxCell id="3bYIfMtGe1pdVCVY-yR_-4" value="RGBt" style="text;html=1;strokeColor=default;fillColor=none;align=center;verticalAlign=middle;whiteSpace=wrap;rounded=0;sketch=1;hachureGap=4;pointerEvents=0;" vertex="1" parent="1">
          <mxGeometry x="300" y="200" width="100" height="30" as="geometry" />
        </mxCell>
        <mxCell id="3bYIfMtGe1pdVCVY-yR_-5" value="Anim" style="text;html=1;strokeColor=default;fillColor=none;align=center;verticalAlign=middle;whiteSpace=wrap;rounded=0;sketch=1;hachureGap=4;pointerEvents=0;" vertex="1" parent="1">
          <mxGeometry x="400" y="200" width="100" height="30" as="geometry" />
        </mxCell>
        <mxCell id="3bYIfMtGe1pdVCVY-yR_-6" value="Setup" style="text;html=1;strokeColor=default;fillColor=none;align=center;verticalAlign=middle;whiteSpace=wrap;rounded=0;sketch=1;hachureGap=4;pointerEvents=0;" vertex="1" parent="1">
          <mxGeometry x="500" y="200" width="100" height="30" as="geometry" />
        </mxCell>
        <mxCell id="3bYIfMtGe1pdVCVY-yR_-7" value="intesity&lt;br&gt;&lt;font style=&quot;font-size: 33px&quot;&gt;100&lt;/font&gt;%" style="text;html=1;strokeColor=default;fillColor=none;align=center;verticalAlign=middle;whiteSpace=wrap;rounded=0;sketch=1;hachureGap=4;pointerEvents=0;" vertex="1" parent="1">
          <mxGeometry x="200" y="230" width="100" height="70" as="geometry" />
        </mxCell>
        <mxCell id="3bYIfMtGe1pdVCVY-yR_-9" value="temperature&lt;br&gt;&lt;font style=&quot;font-size: 33px&quot;&gt;5600&lt;/font&gt;k" style="text;html=1;strokeColor=default;fillColor=none;align=center;verticalAlign=middle;whiteSpace=wrap;rounded=0;sketch=1;hachureGap=4;pointerEvents=0;" vertex="1" parent="1">
          <mxGeometry x="300" y="230" width="100" height="70" as="geometry" />
        </mxCell>
        <mxCell id="3bYIfMtGe1pdVCVY-yR_-10" value="saturation&lt;br&gt;&lt;font style=&quot;font-size: 33px&quot;&gt;-100&lt;/font&gt;%" style="text;html=1;strokeColor=default;fillColor=none;align=center;verticalAlign=middle;whiteSpace=wrap;rounded=0;sketch=1;hachureGap=4;pointerEvents=0;" vertex="1" parent="1">
          <mxGeometry x="400" y="230" width="100" height="70" as="geometry" />
        </mxCell>
        <mxCell id="3bYIfMtGe1pdVCVY-yR_-11" value="hue&lt;br&gt;&lt;font style=&quot;font-size: 33px&quot;&gt;299&lt;/font&gt;O" style="text;html=1;strokeColor=default;fillColor=none;align=center;verticalAlign=middle;whiteSpace=wrap;rounded=0;sketch=1;hachureGap=4;pointerEvents=0;" vertex="1" parent="1">
          <mxGeometry x="500" y="230" width="100" height="70" as="geometry" />
        </mxCell>
        <mxCell id="3bYIfMtGe1pdVCVY-yR_-12" value="-30%" style="text;html=1;strokeColor=default;fillColor=none;align=center;verticalAlign=middle;whiteSpace=wrap;rounded=0;sketch=1;hachureGap=4;pointerEvents=0;" vertex="1" parent="1">
          <mxGeometry x="200" y="330" width="100" height="30" as="geometry" />
        </mxCell>
        <mxCell id="3bYIfMtGe1pdVCVY-yR_-13" value="-5%" style="text;html=1;strokeColor=default;fillColor=none;align=center;verticalAlign=middle;whiteSpace=wrap;rounded=0;sketch=1;hachureGap=4;pointerEvents=0;" vertex="1" parent="1">
          <mxGeometry x="300" y="330" width="100" height="30" as="geometry" />
        </mxCell>
        <mxCell id="3bYIfMtGe1pdVCVY-yR_-14" value="+5%" style="text;html=1;strokeColor=default;fillColor=none;align=center;verticalAlign=middle;whiteSpace=wrap;rounded=0;sketch=1;hachureGap=4;pointerEvents=0;" vertex="1" parent="1">
          <mxGeometry x="400" y="330" width="100" height="30" as="geometry" />
        </mxCell>
        <mxCell id="3bYIfMtGe1pdVCVY-yR_-15" value="+30" style="text;html=1;strokeColor=default;fillColor=none;align=center;verticalAlign=middle;whiteSpace=wrap;rounded=0;sketch=1;hachureGap=4;pointerEvents=0;" vertex="1" parent="1">
          <mxGeometry x="500" y="330" width="100" height="30" as="geometry" />
        </mxCell>
        <mxCell id="3bYIfMtGe1pdVCVY-yR_-16" value="" style="endArrow=none;html=1;startSize=14;endSize=14;sourcePerimeterSpacing=8;targetPerimeterSpacing=8;strokeWidth=6;sketch=1;" edge="1" parent="1">
          <mxGeometry width="50" height="50" relative="1" as="geometry">
            <mxPoint x="200" y="320" as="sourcePoint" />
            <mxPoint x="600" y="320" as="targetPoint" />
          </mxGeometry>
        </mxCell>
        <mxCell id="3bYIfMtGe1pdVCVY-yR_-17" value="ITSH" style="text;html=1;strokeColor=default;fillColor=none;align=center;verticalAlign=middle;whiteSpace=wrap;rounded=0;sketch=1;hachureGap=4;pointerEvents=0;" vertex="1" parent="1">
          <mxGeometry x="200" y="450" width="100" height="30" as="geometry" />
        </mxCell>
        <mxCell id="3bYIfMtGe1pdVCVY-yR_-18" value="RGBt" style="text;html=1;strokeColor=default;fillColor=none;align=center;verticalAlign=middle;whiteSpace=wrap;rounded=0;sketch=1;hachureGap=4;pointerEvents=0;" vertex="1" parent="1">
          <mxGeometry x="300" y="450" width="100" height="30" as="geometry" />
        </mxCell>
        <mxCell id="3bYIfMtGe1pdVCVY-yR_-19" value="Anim" style="text;html=1;strokeColor=default;fillColor=none;align=center;verticalAlign=middle;whiteSpace=wrap;rounded=0;sketch=1;hachureGap=4;pointerEvents=0;" vertex="1" parent="1">
          <mxGeometry x="400" y="450" width="100" height="30" as="geometry" />
        </mxCell>
        <mxCell id="3bYIfMtGe1pdVCVY-yR_-20" value="Setup" style="text;html=1;strokeColor=default;fillColor=none;align=center;verticalAlign=middle;whiteSpace=wrap;rounded=0;sketch=1;hachureGap=4;pointerEvents=0;" vertex="1" parent="1">
          <mxGeometry x="500" y="450" width="100" height="30" as="geometry" />
        </mxCell>
        <mxCell id="3bYIfMtGe1pdVCVY-yR_-21" value="file/frame&lt;br&gt;&lt;font style=&quot;font-size: 33px&quot;&gt;3&amp;nbsp;&lt;/font&gt;/&amp;nbsp; &amp;nbsp;&lt;span style=&quot;font-size: 33px&quot;&gt;281&lt;/span&gt;" style="text;html=1;strokeColor=default;fillColor=none;align=center;verticalAlign=middle;whiteSpace=wrap;rounded=0;sketch=1;hachureGap=4;pointerEvents=0;" vertex="1" parent="1">
          <mxGeometry x="200" y="480" width="400" height="70" as="geometry" />
        </mxCell>
        <mxCell id="3bYIfMtGe1pdVCVY-yR_-25" value="" style="text;html=1;strokeColor=default;fillColor=none;align=center;verticalAlign=middle;whiteSpace=wrap;rounded=0;sketch=1;hachureGap=4;pointerEvents=0;" vertex="1" parent="1">
          <mxGeometry x="200" y="580" width="100" height="30" as="geometry" />
        </mxCell>
        <mxCell id="3bYIfMtGe1pdVCVY-yR_-26" value="" style="text;html=1;strokeColor=default;fillColor=none;align=center;verticalAlign=middle;whiteSpace=wrap;rounded=0;sketch=1;hachureGap=4;pointerEvents=0;" vertex="1" parent="1">
          <mxGeometry x="300" y="580" width="100" height="30" as="geometry" />
        </mxCell>
        <mxCell id="3bYIfMtGe1pdVCVY-yR_-27" value="" style="text;html=1;strokeColor=default;fillColor=none;align=center;verticalAlign=middle;whiteSpace=wrap;rounded=0;sketch=1;hachureGap=4;pointerEvents=0;" vertex="1" parent="1">
          <mxGeometry x="400" y="580" width="100" height="30" as="geometry" />
        </mxCell>
        <mxCell id="3bYIfMtGe1pdVCVY-yR_-28" value="" style="text;html=1;strokeColor=default;fillColor=none;align=center;verticalAlign=middle;whiteSpace=wrap;rounded=0;sketch=1;hachureGap=4;pointerEvents=0;" vertex="1" parent="1">
          <mxGeometry x="500" y="580" width="100" height="30" as="geometry" />
        </mxCell>
        <mxCell id="3bYIfMtGe1pdVCVY-yR_-29" value="" style="endArrow=none;html=1;startSize=14;endSize=14;sourcePerimeterSpacing=8;targetPerimeterSpacing=8;strokeWidth=6;sketch=1;" edge="1" parent="1">
          <mxGeometry width="50" height="50" relative="1" as="geometry">
            <mxPoint x="200" y="570" as="sourcePoint" />
            <mxPoint x="600" y="570" as="targetPoint" />
          </mxGeometry>
        </mxCell>
        <mxCell id="3bYIfMtGe1pdVCVY-yR_-32" value="" style="group" vertex="1" connectable="0" parent="1">
          <mxGeometry x="240" y="585" width="20" height="20" as="geometry" />
        </mxCell>
        <mxCell id="3bYIfMtGe1pdVCVY-yR_-30" value="" style="endArrow=none;html=1;startSize=14;endSize=14;sourcePerimeterSpacing=8;targetPerimeterSpacing=8;strokeWidth=3;sketch=1;" edge="1" parent="3bYIfMtGe1pdVCVY-yR_-32">
          <mxGeometry width="50" height="50" relative="1" as="geometry">
            <mxPoint y="20" as="sourcePoint" />
            <mxPoint x="20" y="10" as="targetPoint" />
          </mxGeometry>
        </mxCell>
        <mxCell id="3bYIfMtGe1pdVCVY-yR_-31" value="" style="endArrow=none;html=1;startSize=14;endSize=14;sourcePerimeterSpacing=8;targetPerimeterSpacing=8;strokeWidth=3;sketch=1;" edge="1" parent="3bYIfMtGe1pdVCVY-yR_-32">
          <mxGeometry width="50" height="50" relative="1" as="geometry">
            <mxPoint as="sourcePoint" />
            <mxPoint x="20" y="10" as="targetPoint" />
          </mxGeometry>
        </mxCell>
        <mxCell id="3bYIfMtGe1pdVCVY-yR_-37" value="" style="group" vertex="1" connectable="0" parent="1">
          <mxGeometry x="440" y="585" width="20" height="20" as="geometry" />
        </mxCell>
        <mxCell id="3bYIfMtGe1pdVCVY-yR_-33" value="" style="group" vertex="1" connectable="0" parent="3bYIfMtGe1pdVCVY-yR_-37">
          <mxGeometry width="20" height="20" as="geometry" />
        </mxCell>
        <mxCell id="3bYIfMtGe1pdVCVY-yR_-34" value="" style="endArrow=none;html=1;startSize=14;endSize=14;sourcePerimeterSpacing=8;targetPerimeterSpacing=8;strokeWidth=3;sketch=1;" edge="1" parent="3bYIfMtGe1pdVCVY-yR_-33">
          <mxGeometry width="50" height="50" relative="1" as="geometry">
            <mxPoint y="20" as="sourcePoint" />
            <mxPoint x="20" y="10" as="targetPoint" />
          </mxGeometry>
        </mxCell>
        <mxCell id="3bYIfMtGe1pdVCVY-yR_-35" value="" style="endArrow=none;html=1;startSize=14;endSize=14;sourcePerimeterSpacing=8;targetPerimeterSpacing=8;strokeWidth=3;sketch=1;" edge="1" parent="3bYIfMtGe1pdVCVY-yR_-33">
          <mxGeometry width="50" height="50" relative="1" as="geometry">
            <mxPoint as="sourcePoint" />
            <mxPoint x="20" y="10" as="targetPoint" />
          </mxGeometry>
        </mxCell>
        <mxCell id="3bYIfMtGe1pdVCVY-yR_-36" value="" style="endArrow=none;html=1;startSize=14;endSize=14;sourcePerimeterSpacing=8;targetPerimeterSpacing=8;strokeWidth=3;sketch=1;" edge="1" parent="3bYIfMtGe1pdVCVY-yR_-37">
          <mxGeometry width="50" height="50" relative="1" as="geometry">
            <mxPoint x="20" y="20" as="sourcePoint" />
            <mxPoint x="20" as="targetPoint" />
          </mxGeometry>
        </mxCell>
        <mxCell id="3bYIfMtGe1pdVCVY-yR_-38" value="" style="group;rotation=-180;" vertex="1" connectable="0" parent="1">
          <mxGeometry x="340" y="585" width="20" height="20" as="geometry" />
        </mxCell>
        <mxCell id="3bYIfMtGe1pdVCVY-yR_-39" value="" style="group;rotation=-180;" vertex="1" connectable="0" parent="3bYIfMtGe1pdVCVY-yR_-38">
          <mxGeometry width="20" height="20" as="geometry" />
        </mxCell>
        <mxCell id="3bYIfMtGe1pdVCVY-yR_-40" value="" style="endArrow=none;html=1;startSize=14;endSize=14;sourcePerimeterSpacing=8;targetPerimeterSpacing=8;strokeWidth=3;sketch=1;" edge="1" parent="3bYIfMtGe1pdVCVY-yR_-39">
          <mxGeometry width="50" height="50" relative="1" as="geometry">
            <mxPoint x="20" as="sourcePoint" />
            <mxPoint y="10" as="targetPoint" />
          </mxGeometry>
        </mxCell>
        <mxCell id="3bYIfMtGe1pdVCVY-yR_-41" value="" style="endArrow=none;html=1;startSize=14;endSize=14;sourcePerimeterSpacing=8;targetPerimeterSpacing=8;strokeWidth=3;sketch=1;" edge="1" parent="3bYIfMtGe1pdVCVY-yR_-39">
          <mxGeometry width="50" height="50" relative="1" as="geometry">
            <mxPoint x="20" y="20" as="sourcePoint" />
            <mxPoint y="10" as="targetPoint" />
          </mxGeometry>
        </mxCell>
        <mxCell id="3bYIfMtGe1pdVCVY-yR_-42" value="" style="endArrow=none;html=1;startSize=14;endSize=14;sourcePerimeterSpacing=8;targetPerimeterSpacing=8;strokeWidth=3;sketch=1;" edge="1" parent="3bYIfMtGe1pdVCVY-yR_-38">
          <mxGeometry width="50" height="50" relative="1" as="geometry">
            <mxPoint as="sourcePoint" />
            <mxPoint y="20" as="targetPoint" />
          </mxGeometry>
        </mxCell>
        <mxCell id="3bYIfMtGe1pdVCVY-yR_-43" value="" style="rounded=0;whiteSpace=wrap;html=1;sketch=1;hachureGap=4;pointerEvents=0;strokeColor=default;fillColor=none;strokeWidth=3;" vertex="1" parent="1">
          <mxGeometry x="540" y="585" width="20" height="20" as="geometry" />
        </mxCell>
        <mxCell id="3bYIfMtGe1pdVCVY-yR_-44" value="0% (prev)" style="text;html=1;strokeColor=default;fillColor=none;align=center;verticalAlign=middle;whiteSpace=wrap;rounded=0;sketch=1;hachureGap=4;pointerEvents=0;" vertex="1" parent="1">
          <mxGeometry x="200" y="360" width="100" height="30" as="geometry" />
        </mxCell>
        <mxCell id="3bYIfMtGe1pdVCVY-yR_-45" value="25%" style="text;html=1;strokeColor=default;fillColor=none;align=center;verticalAlign=middle;whiteSpace=wrap;rounded=0;sketch=1;hachureGap=4;pointerEvents=0;" vertex="1" parent="1">
          <mxGeometry x="300" y="360" width="100" height="30" as="geometry" />
        </mxCell>
        <mxCell id="3bYIfMtGe1pdVCVY-yR_-48" value="50%" style="text;html=1;strokeColor=default;fillColor=none;align=center;verticalAlign=middle;whiteSpace=wrap;rounded=0;sketch=1;hachureGap=4;pointerEvents=0;" vertex="1" parent="1">
          <mxGeometry x="400" y="360" width="100" height="30" as="geometry" />
        </mxCell>
        <mxCell id="3bYIfMtGe1pdVCVY-yR_-49" value="100%" style="text;html=1;strokeColor=default;fillColor=none;align=center;verticalAlign=middle;whiteSpace=wrap;rounded=0;sketch=1;hachureGap=4;pointerEvents=0;" vertex="1" parent="1">
          <mxGeometry x="500" y="360" width="100" height="30" as="geometry" />
        </mxCell>
        <mxCell id="3bYIfMtGe1pdVCVY-yR_-50" value="1" style="text;html=1;strokeColor=default;fillColor=none;align=center;verticalAlign=middle;whiteSpace=wrap;rounded=0;sketch=1;hachureGap=4;pointerEvents=0;" vertex="1" parent="1">
          <mxGeometry x="200" y="610" width="100" height="30" as="geometry" />
        </mxCell>
        <mxCell id="3bYIfMtGe1pdVCVY-yR_-51" value="2" style="text;html=1;strokeColor=default;fillColor=none;align=center;verticalAlign=middle;whiteSpace=wrap;rounded=0;sketch=1;hachureGap=4;pointerEvents=0;" vertex="1" parent="1">
          <mxGeometry x="300" y="610" width="100" height="30" as="geometry" />
        </mxCell>
        <mxCell id="3bYIfMtGe1pdVCVY-yR_-52" value="3" style="text;html=1;strokeColor=default;fillColor=none;align=center;verticalAlign=middle;whiteSpace=wrap;rounded=0;sketch=1;hachureGap=4;pointerEvents=0;" vertex="1" parent="1">
          <mxGeometry x="400" y="610" width="100" height="30" as="geometry" />
        </mxCell>
        <mxCell id="3bYIfMtGe1pdVCVY-yR_-53" value="4" style="text;html=1;strokeColor=default;fillColor=none;align=center;verticalAlign=middle;whiteSpace=wrap;rounded=0;sketch=1;hachureGap=4;pointerEvents=0;" vertex="1" parent="1">
          <mxGeometry x="500" y="610" width="100" height="30" as="geometry" />
        </mxCell>
        <mxCell id="3bYIfMtGe1pdVCVY-yR_-54" value="ITSH" style="text;html=1;strokeColor=default;fillColor=none;align=center;verticalAlign=middle;whiteSpace=wrap;rounded=0;sketch=1;hachureGap=4;pointerEvents=0;" vertex="1" parent="1">
          <mxGeometry x="200" y="680" width="100" height="30" as="geometry" />
        </mxCell>
        <mxCell id="3bYIfMtGe1pdVCVY-yR_-55" value="RGBt" style="text;html=1;strokeColor=default;fillColor=none;align=center;verticalAlign=middle;whiteSpace=wrap;rounded=0;sketch=1;hachureGap=4;pointerEvents=0;" vertex="1" parent="1">
          <mxGeometry x="300" y="680" width="100" height="30" as="geometry" />
        </mxCell>
        <mxCell id="3bYIfMtGe1pdVCVY-yR_-56" value="Anim" style="text;html=1;strokeColor=default;fillColor=none;align=center;verticalAlign=middle;whiteSpace=wrap;rounded=0;sketch=1;hachureGap=4;pointerEvents=0;" vertex="1" parent="1">
          <mxGeometry x="400" y="680" width="100" height="30" as="geometry" />
        </mxCell>
        <mxCell id="3bYIfMtGe1pdVCVY-yR_-57" value="Setup" style="text;html=1;strokeColor=default;fillColor=none;align=center;verticalAlign=middle;whiteSpace=wrap;rounded=0;sketch=1;hachureGap=4;pointerEvents=0;" vertex="1" parent="1">
          <mxGeometry x="500" y="680" width="100" height="30" as="geometry" />
        </mxCell>
        <mxCell id="3bYIfMtGe1pdVCVY-yR_-58" value="setup / DMX / universe&lt;br&gt;DMX universe can be in the range of 0-65000&lt;br&gt;&lt;span style=&quot;font-size: 33px&quot;&gt;00&lt;/span&gt;" style="text;html=1;strokeColor=default;fillColor=none;align=center;verticalAlign=middle;whiteSpace=wrap;rounded=0;sketch=1;hachureGap=4;pointerEvents=0;" vertex="1" parent="1">
          <mxGeometry x="200" y="710" width="400" height="100" as="geometry" />
        </mxCell>
        <mxCell id="3bYIfMtGe1pdVCVY-yR_-82" value="CONFIRM" style="text;html=1;strokeColor=default;fillColor=none;align=center;verticalAlign=middle;whiteSpace=wrap;rounded=0;sketch=1;hachureGap=4;pointerEvents=0;" vertex="1" parent="1">
          <mxGeometry x="200" y="810" width="100" height="30" as="geometry" />
        </mxCell>
        <mxCell id="3bYIfMtGe1pdVCVY-yR_-83" value="Nxt FEATURE" style="text;html=1;strokeColor=default;fillColor=none;align=center;verticalAlign=middle;whiteSpace=wrap;rounded=0;sketch=1;hachureGap=4;pointerEvents=0;" vertex="1" parent="1">
          <mxGeometry x="300" y="810" width="100" height="30" as="geometry" />
        </mxCell>
        <mxCell id="3bYIfMtGe1pdVCVY-yR_-86" value="Nxt PARAM" style="text;html=1;strokeColor=default;fillColor=none;align=center;verticalAlign=middle;whiteSpace=wrap;rounded=0;sketch=1;hachureGap=4;pointerEvents=0;" vertex="1" parent="1">
          <mxGeometry x="400" y="810" width="100" height="30" as="geometry" />
        </mxCell>
        <mxCell id="3bYIfMtGe1pdVCVY-yR_-87" value="RESET" style="text;html=1;strokeColor=default;fillColor=none;align=center;verticalAlign=middle;whiteSpace=wrap;rounded=0;sketch=1;hachureGap=4;pointerEvents=0;" vertex="1" parent="1">
          <mxGeometry x="500" y="810" width="100" height="30" as="geometry" />
        </mxCell>
      </root>
    </mxGraphModel>
  </diagram>
</mxfile>
